<svg width="28" height="28" viewBox="0 0 28 28" fill="none" xmlns="http://www.w3.org/2000/svg">
<rect width="28" height="28" rx="14" fill="#9F82FF"/>
<circle cx="14" cy="14" r="12" fill="#5E38DA"/>
<path d="M10.9196 18.1855C10.3404 17.9908 9.91391 17.6179 9.64014 17.0668C9.36637 16.5156 9.32685 15.9505 9.52158 15.3713C9.71631 14.7922 10.0892 14.3657 10.6404 14.0919C11.1915 13.8181 11.7566 13.7786 12.3358 13.9734C12.5376 14.0412 12.7131 14.1295 12.8621 14.2382C13.0228 14.3411 13.166 14.4674 13.2915 14.617L15.1591 9.06218L18.3183 10.1244L17.6102 12.2305L15.5041 11.5223L13.7338 16.7876C13.539 17.3667 13.1661 17.7932 12.615 18.067C12.0639 18.3408 11.4987 18.3803 10.9196 18.1855Z" fill="#FFF9F1"/>
<circle cx="14" cy="14" r="9" fill="#300F9D"/>
<path d="M11.1061 18.1855C10.5269 17.9908 10.1004 17.6179 9.82666 17.0668C9.55289 16.5156 9.51337 15.9505 9.7081 15.3713C9.90284 14.7922 10.2758 14.3657 10.8269 14.0919C11.378 13.8181 11.9431 13.7786 12.5223 13.9734C12.7242 14.0412 12.8996 14.1295 13.0486 14.2382C13.2094 14.3411 13.3525 14.4674 13.478 14.617L15.3457 9.06218L18.5048 10.1244L17.7967 12.2305L15.6906 11.5223L13.9203 16.7876C13.7256 17.3667 13.3526 17.7932 12.8015 18.067C12.2504 18.3408 11.6853 18.3803 11.1061 18.1855Z" fill="#FFF9F1"/>
</svg>
