<svg width="24" height="45" viewBox="0 0 24 45" fill="none" xmlns="http://www.w3.org/2000/svg">
<path d="M12 22.3621C9.81273 22.3645 7.71575 23.2345 6.16911 24.7812C4.62247 26.3278 3.75248 28.4248 3.75 30.6121C3.75 37.6714 11.25 43.003 11.5697 43.2261C11.6958 43.3145 11.846 43.3619 12 43.3619C12.154 43.3619 12.3042 43.3145 12.4303 43.2261C12.75 43.003 20.25 37.6714 20.25 30.6121C20.2475 28.4248 19.3775 26.3278 17.8309 24.7812C16.2843 23.2345 14.1873 22.3645 12 22.3621ZM12 27.6121C12.5933 27.6121 13.1734 27.788 13.6667 28.1177C14.1601 28.4473 14.5446 28.9158 14.7716 29.464C14.9987 30.0122 15.0581 30.6154 14.9424 31.1973C14.8266 31.7793 14.5409 32.3138 14.1213 32.7334C13.7018 33.1529 13.1672 33.4387 12.5853 33.5544C12.0033 33.6702 11.4001 33.6108 10.8519 33.3837C10.3038 33.1566 9.83524 32.7721 9.50559 32.2788C9.17595 31.7854 9 31.2054 9 30.6121C9 29.8164 9.31607 29.0533 9.87868 28.4907C10.4413 27.9281 11.2044 27.6121 12 27.6121Z" fill="#401DB2"/>
<path d="M7.5 16.5C7.0875 16.5 6.7345 16.3533 6.441 16.0597C6.1475 15.7662 6.0005 15.413 6 15V7.5C6 7.0875 6.147 6.7345 6.441 6.441C6.735 6.1475 7.088 6.0005 7.5 6H8.25V4.5C8.25 3.4625 8.61575 2.57825 9.34725 1.84725C10.0788 1.11625 10.963 0.750501 12 0.750001C13.037 0.749501 13.9215 1.11525 14.6535 1.84725C15.3855 2.57925 15.751 3.4635 15.75 4.5V6H16.5C16.9125 6 17.2657 6.147 17.5597 6.441C17.8538 6.735 18.0005 7.088 18 7.5V15C18 15.4125 17.8533 15.7657 17.5597 16.0597C17.2662 16.3538 16.913 16.5005 16.5 16.5H7.5ZM12 12.75C12.4125 12.75 12.7657 12.6033 13.0598 12.3098C13.3538 12.0163 13.5005 11.663 13.5 11.25C13.4995 10.837 13.3528 10.484 13.0598 10.191C12.7667 9.898 12.4135 9.751 12 9.75C11.5865 9.749 11.2335 9.896 10.941 10.191C10.6485 10.486 10.5015 10.839 10.5 11.25C10.4985 11.661 10.6455 12.0143 10.941 12.3098C11.2365 12.6053 11.5895 12.752 12 12.75ZM9.75 6H14.25V4.5C14.25 3.875 14.0312 3.34375 13.5938 2.90625C13.1562 2.46875 12.625 2.25 12 2.25C11.375 2.25 10.8438 2.46875 10.4062 2.90625C9.96875 3.34375 9.75 3.875 9.75 4.5V6Z" fill="#B6163A"/>
</svg>
