<svg width="40" height="40" viewBox="0 0 40 40" fill="none" xmlns="http://www.w3.org/2000/svg">
<path d="M23.3142 25.6026C25.4542 25.6026 25.695 24.3084 25.695 23.5684C25.695 21.5792 23.8342 19.9784 21.4267 19.9784C20.8662 19.9783 20.3111 20.0886 19.7933 20.3031C19.2754 20.5176 18.8049 20.832 18.4086 21.2284C18.0123 21.6247 17.698 22.0953 17.4836 22.6132C17.2692 23.1311 17.159 23.6862 17.1592 24.2467C17.1592 25.7009 17.9925 26.5684 17.9925 28.8242C17.9925 31.0801 16.835 35.5076 10.6892 35.5076" stroke="#FFF9F1" stroke-width="0.5" stroke-linecap="round" stroke-linejoin="round"/>
<path d="M23.3141 25.6025C22.1316 25.6025 21.1732 26.5608 21.1732 27.7425C21.1732 28.9242 21.9832 29.8825 23.3132 29.8825C25.4832 29.8825 29.8799 26.2492 33.4449 23.3208C34.4124 22.5258 35.1691 21.4367 35.1691 20.09C35.1672 19.1081 34.7918 18.1636 34.1191 17.4483C34.1191 17.4483 33.9966 17.3175 33.9582 17.2817C27.0641 10.28 15.7632 5.66334 11.6741 4.81501C11.4877 4.76865 11.2984 4.73524 11.1074 4.71501C10.9688 4.69409 10.8291 4.68018 10.6891 4.67334C9.65751 4.67378 8.66833 5.08376 7.93891 5.81318C7.20949 6.5426 6.79951 7.53178 6.79907 8.56334C6.79907 9.17834 6.95407 9.75251 7.20824 10.2692L7.19991 10.2833C8.72824 13.0392 11.5857 18.6608 13.2607 24.1858L13.2616 24.18" stroke="#FFF9F1" stroke-width="0.5" stroke-linecap="round" stroke-linejoin="round"/>
<path d="M10.6891 27.7266C8.0474 28.065 6.79907 29.4683 6.79907 31.6166C6.79907 32.1275 6.89969 32.6333 7.09518 33.1053C7.29067 33.5772 7.57721 34.0061 7.93843 34.3673C8.29965 34.7285 8.72848 35.015 9.20043 35.2105C9.67239 35.406 10.1782 35.5066 10.6891 35.5066C11.1999 35.5066 11.7058 35.406 12.1777 35.2105C12.6497 35.015 13.0785 34.7285 13.4397 34.3673C13.8009 34.0061 14.0875 33.5772 14.283 33.1053C14.4785 32.6333 14.5791 32.1275 14.5791 31.6166C14.5791 29.3666 14.0499 26.7875 13.2616 24.1858C13.2532 24.2491 13.4499 27.3725 10.6891 27.7266Z" stroke="#FFF9F1" stroke-width="0.5" stroke-linecap="round" stroke-linejoin="round"/>
<path d="M23.3142 29.8834C25.335 29.8834 26.3484 26.8717 25.695 23.2709" stroke="#FFF9F1" stroke-width="0.5" stroke-linecap="round" stroke-linejoin="round"/>
</svg>
