<svg width="57" height="100" viewBox="0 0 57 100" fill="none" xmlns="http://www.w3.org/2000/svg">
<path d="M18 36.6666C17.0833 36.6666 16.2988 36.3405 15.6466 35.6883C14.9944 35.0361 14.6677 34.2511 14.6666 33.3333V16.6666C14.6666 15.75 14.9933 14.9655 15.6466 14.3133C16.3 13.6611 17.0844 13.3344 18 13.3333H19.6666V9.99996C19.6666 7.69441 20.4794 5.72941 22.105 4.10496C23.7305 2.48052 25.6955 1.66774 28 1.66663C30.3044 1.66552 32.27 2.47829 33.8966 4.10496C35.5233 5.73163 36.3355 7.69663 36.3333 9.99996V13.3333H38C38.9166 13.3333 39.7016 13.66 40.355 14.3133C41.0083 14.9666 41.3344 15.7511 41.3333 16.6666V33.3333C41.3333 34.25 41.0072 35.035 40.355 35.6883C39.7027 36.3416 38.9177 36.6677 38 36.6666H18ZM28 28.3333C28.9166 28.3333 29.7016 28.0072 30.355 27.355C31.0083 26.7027 31.3344 25.9177 31.3333 25C31.3322 24.0822 31.0061 23.2977 30.355 22.6466C29.7038 21.9955 28.9188 21.6688 28 21.6666C27.0811 21.6644 26.2966 21.9911 25.6466 22.6466C24.9966 23.3022 24.67 24.0866 24.6666 25C24.6633 25.9133 24.99 26.6983 25.6466 27.355C26.3033 28.0116 27.0877 28.3377 28 28.3333ZM23 13.3333H33V9.99996C33 8.61107 32.5138 7.43052 31.5416 6.45829C30.5694 5.48607 29.3888 4.99996 28 4.99996C26.6111 4.99996 25.4305 5.48607 24.4583 6.45829C23.4861 7.43052 23 8.61107 23 9.99996V13.3333Z" fill="#B6163A"/>
<rect y="43" width="57" height="57" rx="28.5" fill="#444444" fill-opacity="0.3"/>
<circle cx="28.2233" cy="71.5001" r="18.2621" fill="#444444" fill-opacity="0.5"/>
<rect x="14.9418" y="58.4951" width="26.5631" height="26.5631" rx="13.2816" fill="#444444" fill-opacity="0.8"/>
<g clip-path="url(#clip0_231_1138)">
<g filter="url(#filter0_d_231_1138)">
<path d="M23.6936 77.0258C22.9249 76.7673 22.3588 76.2724 21.9954 75.5409C21.632 74.8094 21.5796 74.0592 21.8381 73.2905C22.0965 72.5217 22.5915 71.9557 23.323 71.5923C24.0545 71.2289 24.8046 71.1765 25.5734 71.4349C25.8413 71.525 26.0741 71.6422 26.2719 71.7865C26.4853 71.9231 26.6753 72.0906 26.8419 72.2893L29.3208 64.9163L33.514 66.3261L32.5741 69.1216L29.7787 68.1817L27.4289 75.1703C27.1705 75.939 26.6755 76.5051 25.944 76.8685C25.2125 77.2318 24.4623 77.2843 23.6936 77.0258Z" fill="#F1F1F1"/>
</g>
</g>
<defs>
<filter id="filter0_d_231_1138" x="17.6769" y="64.9163" width="19.8372" height="20.2708" filterUnits="userSpaceOnUse" color-interpolation-filters="sRGB">
<feFlood flood-opacity="0" result="BackgroundImageFix"/>
<feColorMatrix in="SourceAlpha" type="matrix" values="0 0 0 0 0 0 0 0 0 0 0 0 0 0 0 0 0 0 127 0" result="hardAlpha"/>
<feOffset dy="4"/>
<feGaussianBlur stdDeviation="2"/>
<feComposite in2="hardAlpha" operator="out"/>
<feColorMatrix type="matrix" values="0 0 0 0 0 0 0 0 0 0 0 0 0 0 0 0 0 0 0.25 0"/>
<feBlend mode="normal" in2="BackgroundImageFix" result="effect1_dropShadow_231_1138"/>
<feBlend mode="normal" in="SourceGraphic" in2="effect1_dropShadow_231_1138" result="shape"/>
</filter>
<clipPath id="clip0_231_1138">
<rect width="17.6953" height="17.6953" fill="white" transform="translate(21.6394 60) rotate(18.5839)"/>
</clipPath>
</defs>
</svg>
