<svg width="57" height="100" viewBox="0 0 57 100" fill="none" xmlns="http://www.w3.org/2000/svg">
<rect y="43" width="57" height="57" rx="28.5" fill="#D91A45" fill-opacity="0.2"/>
<circle cx="28.2233" cy="71.5001" r="18.2621" fill="#D91A45" fill-opacity="0.5"/>
<rect x="14.9418" y="58.4951" width="26.5631" height="26.5631" rx="13.2816" fill="#B6163A"/>
<g clip-path="url(#clip0_231_1130)">
<g filter="url(#filter0_d_231_1130)">
<path d="M23.6936 77.0258C22.9249 76.7673 22.3588 76.2724 21.9954 75.5409C21.632 74.8094 21.5796 74.0592 21.8381 73.2905C22.0965 72.5217 22.5915 71.9557 23.323 71.5923C24.0545 71.2289 24.8046 71.1765 25.5734 71.4349C25.8413 71.525 26.0741 71.6422 26.2719 71.7865C26.4853 71.9231 26.6753 72.0906 26.8419 72.2893L29.3208 64.9163L33.514 66.3261L32.5741 69.1216L29.7787 68.1817L27.4289 75.1703C27.1705 75.939 26.6755 76.5051 25.944 76.8685C25.2125 77.2318 24.4623 77.2843 23.6936 77.0258Z" fill="#F1F1F1"/>
</g>
</g>
<path d="M38 13.3333C38.884 13.3333 39.7319 13.6845 40.357 14.3096C40.9821 14.9347 41.3333 15.7826 41.3333 16.6666V33.3333C41.3333 34.2173 40.9821 35.0652 40.357 35.6903C39.7319 36.3154 38.884 36.6666 38 36.6666H18C17.1159 36.6666 16.2681 36.3154 15.6429 35.6903C15.0178 35.0652 14.6666 34.2173 14.6666 33.3333V16.6666C14.6666 15.7826 15.0178 14.9347 15.6429 14.3096C16.2681 13.6845 17.1159 13.3333 18 13.3333H33V9.99996C33 8.67388 32.4732 7.40211 31.5355 6.46443C30.5978 5.52674 29.326 4.99996 28 4.99996C26.6739 4.99996 25.4021 5.52674 24.4644 6.46443C23.5267 7.40211 23 8.67388 23 9.99996H19.6666C19.6666 7.78982 20.5446 5.67021 22.1074 4.1074C23.6702 2.5446 25.7898 1.66663 28 1.66663C29.0943 1.66663 30.1779 1.88217 31.189 2.30096C32.2 2.71975 33.1187 3.33358 33.8925 4.1074C34.6663 4.88122 35.2802 5.79988 35.699 6.81093C36.1177 7.82198 36.3333 8.90561 36.3333 9.99996V13.3333H38ZM28 28.3333C28.884 28.3333 29.7319 27.9821 30.357 27.357C30.9821 26.7319 31.3333 25.884 31.3333 25C31.3333 24.1159 30.9821 23.2681 30.357 22.6429C29.7319 22.0178 28.884 21.6666 28 21.6666C27.1159 21.6666 26.2681 22.0178 25.6429 22.6429C25.0178 23.2681 24.6666 24.1159 24.6666 25C24.6666 25.884 25.0178 26.7319 25.6429 27.357C26.2681 27.9821 27.1159 28.3333 28 28.3333Z" fill="#168E5A"/>
<defs>
<filter id="filter0_d_231_1130" x="17.6769" y="64.9163" width="19.8372" height="20.2708" filterUnits="userSpaceOnUse" color-interpolation-filters="sRGB">
<feFlood flood-opacity="0" result="BackgroundImageFix"/>
<feColorMatrix in="SourceAlpha" type="matrix" values="0 0 0 0 0 0 0 0 0 0 0 0 0 0 0 0 0 0 127 0" result="hardAlpha"/>
<feOffset dy="4"/>
<feGaussianBlur stdDeviation="2"/>
<feComposite in2="hardAlpha" operator="out"/>
<feColorMatrix type="matrix" values="0 0 0 0 0 0 0 0 0 0 0 0 0 0 0 0 0 0 0.25 0"/>
<feBlend mode="normal" in2="BackgroundImageFix" result="effect1_dropShadow_231_1130"/>
<feBlend mode="normal" in="SourceGraphic" in2="effect1_dropShadow_231_1130" result="shape"/>
</filter>
<clipPath id="clip0_231_1130">
<rect width="17.6953" height="17.6953" fill="white" transform="translate(21.6394 60) rotate(18.5839)"/>
</clipPath>
</defs>
</svg>
