<svg width="16" height="16" viewBox="0 0 16 16" fill="none" xmlns="http://www.w3.org/2000/svg">
<g clip-path="url(#clip0_275_896)">
<path d="M12 5.97336C12.3536 5.97336 12.6928 6.11384 12.9428 6.36389C13.1929 6.61394 13.3333 6.95307 13.3333 7.3067V13.9734C13.3333 14.327 13.1929 14.6661 12.9428 14.9162C12.6928 15.1662 12.3536 15.3067 12 15.3067H4C3.64638 15.3067 3.30724 15.1662 3.05719 14.9162C2.80714 14.6661 2.66666 14.327 2.66666 13.9734V7.3067C2.66666 6.95307 2.80714 6.61394 3.05719 6.36389C3.30724 6.11384 3.64638 5.97336 4 5.97336H10V4.64003C10 4.1096 9.78928 3.60089 9.41421 3.22582C9.03914 2.85074 8.53043 2.64003 8 2.64003C7.46957 2.64003 6.96086 2.85074 6.58578 3.22582C6.21071 3.60089 6 4.1096 6 4.64003H4.66666C4.66666 3.75597 5.01785 2.90813 5.64298 2.28301C6.2681 1.65789 7.11594 1.3067 8 1.3067C8.43774 1.3067 8.87119 1.39292 9.27561 1.56043C9.68003 1.72795 10.0475 1.97348 10.357 2.28301C10.6665 2.59254 10.9121 2.96 11.0796 3.36442C11.2471 3.76884 11.3333 4.20229 11.3333 4.64003V5.97336H12ZM8 11.9734C8.35362 11.9734 8.69276 11.8329 8.94281 11.5828C9.19286 11.3328 9.33333 10.9937 9.33333 10.64C9.33333 10.2864 9.19286 9.94727 8.94281 9.69722C8.69276 9.44717 8.35362 9.3067 8 9.3067C7.64638 9.3067 7.30724 9.44717 7.05719 9.69722C6.80714 9.94727 6.66666 10.2864 6.66666 10.64C6.66666 10.9937 6.80714 11.3328 7.05719 11.5828C7.30724 11.8329 7.64638 11.9734 8 11.9734Z" fill="#FFF9F1"/>
<path d="M11.8933 5.9467C12.247 5.9467 12.5861 6.08717 12.8361 6.33722C13.0862 6.58727 13.2267 6.92641 13.2267 7.28003V13.9467C13.2267 14.3003 13.0862 14.6395 12.8361 14.8895C12.5861 15.1396 12.247 15.28 11.8933 15.28H3.89333C3.53971 15.28 3.20057 15.1396 2.95052 14.8895C2.70047 14.6395 2.56 14.3003 2.56 13.9467V7.28003C2.56 6.92641 2.70047 6.58727 2.95052 6.33722C3.20057 6.08717 3.53971 5.9467 3.89333 5.9467H9.89333V4.61336C9.89333 4.08293 9.68262 3.57422 9.30755 3.19915C8.93247 2.82408 8.42376 2.61336 7.89333 2.61336C7.3629 2.61336 6.85419 2.82408 6.47912 3.19915C6.10404 3.57422 5.89333 4.08293 5.89333 4.61336H4.56C4.56 3.72931 4.91119 2.88146 5.53631 2.25634C6.16143 1.63122 7.00928 1.28003 7.89333 1.28003C8.33107 1.28003 8.76452 1.36625 9.16894 1.53376C9.57336 1.70128 9.94083 1.94681 10.2504 2.25634C10.5599 2.56587 10.8054 2.93333 10.9729 3.33775C11.1404 3.74217 11.2267 4.17562 11.2267 4.61336V5.9467H11.8933ZM7.89333 11.9467C8.24695 11.9467 8.58609 11.8062 8.83614 11.5562C9.08619 11.3061 9.22666 10.967 9.22666 10.6134C9.22666 10.2597 9.08619 9.9206 8.83614 9.67055C8.58609 9.4205 8.24695 9.28003 7.89333 9.28003C7.53971 9.28003 7.20057 9.4205 6.95052 9.67055C6.70047 9.9206 6.56 10.2597 6.56 10.6134C6.56 10.967 6.70047 11.3061 6.95052 11.5562C7.20057 11.8062 7.53971 11.9467 7.89333 11.9467Z" fill="white"/>
</g>
<defs>
<clipPath id="clip0_275_896">
<rect width="16" height="16" fill="white"/>
</clipPath>
</defs>
</svg>
