<svg width="11" height="14" viewBox="0 0 11 14" fill="none" xmlns="http://www.w3.org/2000/svg">
<path d="M1.375 14C0.996875 14 0.673291 13.8696 0.40425 13.6087C0.135208 13.3478 0.000458333 13.0338 0 12.6667V6C0 5.63333 0.13475 5.31956 0.40425 5.05867C0.67375 4.79778 0.997333 4.66711 1.375 4.66667H2.0625V3.33333C2.0625 2.41111 2.39777 1.62511 3.06831 0.975334C3.73885 0.325556 4.54942 0.000444899 5.5 4.55063e-07C6.45058 -0.000443989 7.26137 0.324667 7.93237 0.975334C8.60337 1.626 8.93842 2.412 8.9375 3.33333V4.66667H9.625C10.0031 4.66667 10.3269 4.79733 10.5964 5.05867C10.8659 5.32 11.0005 5.63378 11 6V12.6667C11 13.0333 10.8655 13.3473 10.5964 13.6087C10.3274 13.87 10.0036 14.0004 9.625 14H1.375ZM5.5 10.6667C5.87812 10.6667 6.20194 10.5362 6.47144 10.2753C6.74094 10.0144 6.87546 9.70044 6.875 9.33333C6.87454 8.96622 6.74002 8.65244 6.47144 8.392C6.20285 8.13156 5.87904 8.00089 5.5 8C5.12096 7.99911 4.79737 8.12978 4.52925 8.392C4.26112 8.65422 4.12637 8.968 4.125 9.33333C4.12362 9.69867 4.25837 10.0127 4.52925 10.2753C4.80012 10.538 5.12371 10.6684 5.5 10.6667ZM3.4375 4.66667H7.5625V3.33333C7.5625 2.77778 7.36198 2.30556 6.96094 1.91667C6.5599 1.52778 6.07292 1.33333 5.5 1.33333C4.92708 1.33333 4.4401 1.52778 4.03906 1.91667C3.63802 2.30556 3.4375 2.77778 3.4375 3.33333V4.66667Z" fill="#FFF9F1"/>
</svg>
