<svg width="57" height="57" viewBox="0 0 57 57" fill="none" xmlns="http://www.w3.org/2000/svg">
<rect width="57" height="57" rx="28.5" fill="#D91A45" fill-opacity="0.2"/>
<circle cx="28.2233" cy="28.4999" r="18.2621" fill="#D91A45" fill-opacity="0.5"/>
<rect x="14.9417" y="15.4951" width="26.5631" height="26.5631" rx="13.2816" fill="#A91536"/>
<g clip-path="url(#clip0_102_2153)">
<path d="M24.6936 34.0257C23.9249 33.7672 23.3588 33.2722 22.9954 32.5407C22.632 31.8092 22.5796 31.0591 22.8381 30.2904C23.0965 29.5216 23.5915 28.9556 24.323 28.5922C25.0545 28.2288 25.8046 28.1764 26.5734 28.4348C26.8413 28.5249 27.0741 28.6421 27.2719 28.7864C27.4853 28.9229 27.6753 29.0905 27.8419 29.2891L30.3208 21.9162L34.514 23.326L33.5741 26.1215L30.7787 25.1816L28.4289 32.1702C28.1705 32.9389 27.6755 33.505 26.944 33.8683C26.2125 34.2317 25.4623 34.2842 24.6936 34.0257Z" fill="#F1F1F1"/>
</g>
<defs>
<clipPath id="clip0_102_2153">
<rect width="17.6953" height="17.6953" fill="white" transform="translate(22.6394 17) rotate(18.5839)"/>
</clipPath>
</defs>
</svg>
