<svg width="15" height="15" viewBox="0 0 15 15" fill="none" xmlns="http://www.w3.org/2000/svg">
<path d="M14.375 1.87494C13.7765 2.29711 13.1138 2.62001 12.4125 2.83119C12.0361 2.39838 11.5358 2.09162 10.9794 1.95239C10.423 1.81316 9.83718 1.84818 9.3013 2.05272C8.76542 2.25726 8.30528 2.62144 7.98311 3.09601C7.66095 3.57058 7.49231 4.13265 7.5 4.70619V5.33119C6.40165 5.35967 5.3133 5.11607 4.33188 4.62209C3.35046 4.12811 2.50645 3.39908 1.875 2.49994C1.875 2.49994 -0.625 8.12494 5 10.6249C3.71283 11.4987 2.17947 11.9368 0.625 11.8749C6.25 14.9999 13.125 11.8749 13.125 4.68744C13.1244 4.51335 13.1077 4.33968 13.075 4.16869C13.7129 3.53962 14.163 2.74538 14.375 1.87494Z" stroke="#FFF9F1" stroke-linecap="round" stroke-linejoin="round"/>
</svg>
