<svg width="24" height="46" viewBox="0 0 24 46" fill="none" xmlns="http://www.w3.org/2000/svg">
<path d="M12 23.5C9.81273 23.5025 7.71575 24.3725 6.16911 25.9191C4.62247 27.4657 3.75248 29.5627 3.75 31.75C3.75 38.8094 11.25 44.1409 11.5697 44.3641C11.6958 44.4524 11.846 44.4998 12 44.4998C12.154 44.4998 12.3042 44.4524 12.4303 44.3641C12.75 44.1409 20.25 38.8094 20.25 31.75C20.2475 29.5627 19.3775 27.4657 17.8309 25.9191C16.2843 24.3725 14.1873 23.5025 12 23.5ZM12 28.75C12.5933 28.75 13.1734 28.9259 13.6667 29.2556C14.1601 29.5852 14.5446 30.0538 14.7716 30.6019C14.9987 31.1501 15.0581 31.7533 14.9424 32.3353C14.8266 32.9172 14.5409 33.4518 14.1213 33.8713C13.7018 34.2909 13.1672 34.5766 12.5853 34.6924C12.0033 34.8081 11.4001 34.7487 10.8519 34.5216C10.3038 34.2946 9.83524 33.9101 9.50559 33.4167C9.17595 32.9234 9 32.3433 9 31.75C9 30.9544 9.31607 30.1913 9.87868 29.6287C10.4413 29.0661 11.2044 28.75 12 28.75Z" fill="#401DB2"/>
<path d="M16.5 6C16.8978 6 17.2794 6.15804 17.5607 6.43934C17.842 6.72064 18 7.10218 18 7.5V15C18 15.3978 17.842 15.7794 17.5607 16.0607C17.2794 16.342 16.8978 16.5 16.5 16.5H7.5C7.10218 16.5 6.72064 16.342 6.43934 16.0607C6.15804 15.7794 6 15.3978 6 15V7.5C6 7.10218 6.15804 6.72064 6.43934 6.43934C6.72064 6.15804 7.10218 6 7.5 6H14.25V4.5C14.25 3.90326 14.0129 3.33097 13.591 2.90901C13.169 2.48705 12.5967 2.25 12 2.25C11.4033 2.25 10.831 2.48705 10.409 2.90901C9.98705 3.33097 9.75 3.90326 9.75 4.5H8.25C8.25 3.50544 8.64509 2.55161 9.34835 1.84835C10.0516 1.14509 11.0054 0.75 12 0.75C12.4925 0.75 12.9801 0.846997 13.4351 1.03545C13.89 1.22391 14.3034 1.50013 14.6517 1.84835C14.9999 2.19657 15.2761 2.60997 15.4645 3.06494C15.653 3.51991 15.75 4.00754 15.75 4.5V6H16.5ZM12 12.75C12.3978 12.75 12.7794 12.592 13.0607 12.3107C13.342 12.0294 13.5 11.6478 13.5 11.25C13.5 10.8522 13.342 10.4706 13.0607 10.1893C12.7794 9.90804 12.3978 9.75 12 9.75C11.6022 9.75 11.2206 9.90804 10.9393 10.1893C10.658 10.4706 10.5 10.8522 10.5 11.25C10.5 11.6478 10.658 12.0294 10.9393 12.3107C11.2206 12.592 11.6022 12.75 12 12.75Z" fill="#168E5A"/>
</svg>
