<?xml version="1.0" encoding="UTF-8"?>
<svg id="Lager_1" data-name="Lager 1" xmlns="http://www.w3.org/2000/svg" viewBox="0 0 2897.4 1036.94">
  <defs>
    <style>
      .cls-1 {
        letter-spacing: 0em;
      }

      .cls-2, .cls-3 {
        fill: #fff;
      }

      .cls-4 {
        letter-spacing: -.01em;
      }

      .cls-3 {
        font-family: CAOOLIRegular, CAOOLI;
        font-size: 927.87px;
      }
    </style>
  </defs>
  <text class="cls-3" transform="translate(0 811.47)"><tspan x="0" y="0">vib</tspan><tspan class="cls-4" x="1273.93" y="0">b</tspan><tspan class="cls-1" x="1780.55" y="0">la</tspan></text>
  <path class="cls-2" d="M2771.04,62.83c-44.07-32.76-90.53-58.22-145.99-62.81-1.77-.13-3.61.19-5.38.86-12.54,4.61-16.94,21.01-8.95,31.68,1.48,1.97,3.04,3.7,4.92,5.08,9.09,6.62,21.32,8.87,32.26,12.77,71.03,25.92,130.2,65.31,155.51,133.6,39.37,75.85,46.88,150.25,38.56,227.29-1.95,17.89-.89,35,23.95,35.41,22.6.33,29.2-14.66,29.47-33.12.54-37.73,5.02-76.4-1.46-112.95-16.07-91.29-42.84-178.29-123.01-237.84l.12.04Z"/>
  <path class="cls-2" d="M2677.87,171.78c-26.65-21.25-63.67-30.06-96.93-42.23-1.2-.41-2.53-.45-3.97-.14-13.3,2.88-17.61,19.24-10.03,30.51.72,1.05,1.4,2.01,2.24,2.9,4.48,5.19,12.13,8.31,18.94,10.95,64.69,25.65,104.84,74.77,122.25,139.66,10.73,39.86,12.05,82.57,14.82,124.16,1.37,20.56,1.25,40.74,27.1,40.96,24.2.13,30.69-18.11,29.77-39.78-.55-13.45.99-27.13-1.01-40.26-4.27-28.23-8.98-56.35-13.97-85.23-5.18-30.28-17.6-58.99-36.25-83.5-16.22-21.21-32.75-42.07-52.96-58.2v.2Z"/>
  <path class="cls-2" d="M2550.48,245.79c-3.77-1.54-8.67-.51-13.89,1.47-10.77,3.93-16.28,17.08-9.61,26.49.88,1.17,1.84,2.09,2.92,2.66,55.29,26.3,69.28,74.96,73.68,129.76.96,11.24,1.83,25.33,8.71,32.54,6.96,7.37,22.03,12.12,31.79,9.99,7.07-1.5,16.88-16.87,15.87-24.79-2.26-17.51-5.33-35.02-8.63-52.41-10.59-55.75-47.7-102.97-99.79-125.25-.36-.12-.64-.28-1.04-.49Z"/>
</svg>